<svg width="20" height="20" viewBox="0 0 20 20" fill="none" xmlns="http://www.w3.org/2000/svg">
<path d="M9.74758 6.49854C7.95724 6.49854 6.49619 7.95959 6.49619 9.74992C6.49619 11.5403 7.95724 13.0013 9.74758 13.0013C11.5379 13.0013 12.999 11.5403 12.999 9.74992C12.999 7.95959 11.5379 6.49854 9.74758 6.49854ZM19.4993 9.74992C19.4993 8.40351 19.5115 7.0693 19.4359 5.72533C19.3603 4.16427 19.0041 2.77884 17.8626 1.63732C16.7187 0.493357 15.3357 0.139681 13.7746 0.064067C12.4282 -0.0115466 11.094 0.000649216 9.75002 0.000649216C8.40361 0.000649216 7.06939 -0.0115466 5.72542 0.064067C4.16437 0.139681 2.77893 0.495796 1.63741 1.63732C0.493449 2.78128 0.139772 4.16427 0.0641586 5.72533C-0.011455 7.07174 0.000740769 8.40595 0.000740769 9.74992C0.000740769 11.0939 -0.011455 12.4305 0.0641586 13.7745C0.139772 15.3356 0.495888 16.721 1.63741 17.8625C2.78137 19.0065 4.16437 19.3602 5.72542 19.4358C7.07183 19.5114 8.40604 19.4992 9.75002 19.4992C11.0964 19.4992 12.4306 19.5114 13.7746 19.4358C15.3357 19.3602 16.7211 19.0041 17.8626 17.8625C19.0066 16.7186 19.3603 15.3356 19.4359 13.7745C19.5139 12.4305 19.4993 11.0963 19.4993 9.74992ZM9.74758 14.7526C6.97914 14.7526 4.74488 12.5184 4.74488 9.74992C4.74488 6.98149 6.97914 4.74723 9.74758 4.74723C12.516 4.74723 14.7503 6.98149 14.7503 9.74992C14.7503 12.5184 12.516 14.7526 9.74758 14.7526ZM14.9552 5.71069C14.3088 5.71069 13.7868 5.18872 13.7868 4.54234C13.7868 3.89597 14.3088 3.37399 14.9552 3.37399C15.6015 3.37399 16.1235 3.89597 16.1235 4.54234C16.1237 4.69583 16.0936 4.84784 16.035 4.98968C15.9763 5.13152 15.8903 5.26039 15.7817 5.36892C15.6732 5.47745 15.5443 5.5635 15.4025 5.62215C15.2607 5.6808 15.1086 5.71089 14.9552 5.71069Z" fill="#31352B"/>
</svg>
